<svg width="50" height="50" viewBox="0 0 50 50" fill="none" xmlns="http://www.w3.org/2000/svg">
<ellipse cx="25" cy="25.5" rx="24" ry="24.5" fill="white"/>
<path d="M18.5144 0.877464C6.94289 4.38148 0 13.4919 0 25.0051C0 34.4159 4.82984 42.6253 12.779 46.73C16.9044 48.8324 17.5082 47.3307 13.6845 44.4273C10.9678 42.2248 10.4647 41.2237 10.4647 37.5194C10.4647 34.9164 9.86092 32.814 8.95533 32.0131C7.14414 30.5114 6.94289 26.6069 8.75408 25.2053C9.45844 24.6046 10.1628 22.6023 10.2634 20.8003C10.7665 14.1927 17.9107 7.9856 25.0548 7.9856C32.1989 7.9856 39.3431 14.1927 39.8462 20.8003C39.9468 22.6023 40.6511 24.6046 41.3555 25.2053C43.1667 26.6069 42.9654 30.5114 41.1543 32.0131C40.2487 32.814 39.6449 34.9164 39.6449 37.5194C39.6449 41.2237 39.1418 42.2248 36.425 44.4273C32.1989 47.7311 33.4064 48.9325 38.1356 46.0292C44.7766 41.9245 49.7071 33.0143 49.7071 25.1052C49.7071 9.28709 33.2051 -3.52758 18.5144 0.877464Z" fill="#D41443"/>
<path d="M19.8225 12.4908C18.0113 13.2917 16.502 14.2928 16.502 14.8935C16.502 15.9948 21.9355 17.9971 25.0548 17.9971C28.1741 17.9971 33.6076 15.9948 33.6076 14.8935C33.6076 13.6921 27.3691 10.989 24.8535 10.989C23.8473 11.0892 21.533 11.6898 19.8225 12.4908Z" fill="#D41443"/>
<path d="M14.0869 18.6978C13.785 19.0983 13.4832 20.3998 13.4832 21.7013C13.4832 24.0039 13.5838 24.0039 25.0546 24.0039C36.5255 24.0039 36.6261 24.0039 36.6261 21.7013C36.6261 18.2974 35.7205 17.8969 32.5006 19.4987C28.8783 21.4009 21.231 21.4009 17.6086 19.4987C15.9987 18.6978 14.4894 18.3975 14.0869 18.6978Z" fill="#D41443"/>
<path d="M11.1688 27.608C9.5589 29.31 12.2757 30.0108 20.1242 30.0108H28.5764V33.5148C28.5764 35.417 29.0795 37.0188 29.5826 37.0188C30.1863 37.0188 30.5888 35.5171 30.5888 33.6149C30.5888 30.3111 30.7901 30.1109 34.6137 29.8105C36.8274 29.6103 38.6386 29.0096 38.6386 28.5091C38.6386 27.4078 12.2757 26.5068 11.1688 27.608Z" fill="#D41443"/>
<path d="M13.4832 36.4181C13.4832 41.9244 15.395 43.0256 25.0546 43.0256C34.7143 43.0256 36.6261 41.9244 36.6261 36.4181C36.6261 34.0153 36.123 33.0142 35.1168 33.0142C34.2112 33.0142 33.6075 33.9152 33.6075 35.4169C33.6075 41.0233 25.9602 41.5239 24.8534 36.0176C24.3503 33.1143 24.0484 33.0142 18.9167 33.0142H13.4832V36.4181Z" fill="#D41443"/>
<path d="M19.722 47.7312C20.3257 50.9349 30.5892 50.6345 30.5892 47.531C30.5892 46.4297 29.2811 46.0292 24.9543 46.0292C20.2251 46.0292 19.4201 46.3296 19.722 47.7312Z" fill="#D41443"/>
</svg>
